Coordinates
version=1
nRows=34
nColumns=33
inDegrees=yes

Units are S.I. units (second, meters, Newtons, ...)
Angles are in degrees.

endheader
time	ground_thorax_rot_x	ground_thorax_rot_y	ground_thorax_rot_z	ground_thorax_tx	ground_thorax_ty	ground_thorax_tz	clav_prot_r	clav_elev_r	scapula_abduction_r	scapula_elevation_r	scapula_upward_rot_r	scapula_winging_r	shoulder_elv_r	plane_of_elev_r	axial_rot_r	elbow_flexion_r	pro_sup_r	wrist_flex_r	wrist_dev_r	clav_prot_l	clav_elev_l	scapula_abduction_l	scapula_elevation_l	scapula_upward_rot_l	scapula_winging_l	shoulder_elv_l	plane_of_elev_l	axial_rot_l	elbow_flexion_l	pro_sup_l	wrist_flex_l	wrist_dev_l	
2.9200	-39.346812	-10.336363	11.723637	-209.013718	825.394645	5.546625	9.358909	-45.000000	39.616029	-45.000000	-43.966526	2780.358490	-2985.148462	146.869199	-122.448016	1103.958101	149.428317	12.197925	4.638608	16.259460	38.553291	-39.720755	-44.999996	-43.880854	-1355.534840	-649.001968	26.705257	-7.723581	729.576058	4.700924	10.266477	-20.099699	
2.9300	-39.430018	-10.417963	11.592962	-205.402032	824.565679	5.574683	9.373696	-45.000000	39.794151	-45.000000	-43.413878	2780.652958	-2985.372148	146.975233	-120.070853	1104.481848	161.220401	11.545763	5.081665	16.320987	38.732943	-39.950596	-44.999993	-43.332071	-1355.633863	-649.147859	26.740034	-7.744308	729.553893	3.541793	10.612211	-19.801626	
2.9400	-39.527312	-10.483237	11.429987	-201.601481	823.603211	5.596902	9.398653	-45.000000	39.995104	-45.000000	-42.726501	2780.966449	-2985.554370	147.046773	-118.645908	1104.765074	168.869299	11.097188	5.314152	16.376764	38.929225	-40.178673	-44.999987	-42.683300	-1355.737736	-649.314410	26.800181	-7.586632	729.516580	3.252394	10.881873	-19.597758	
2.9500	-39.634661	-10.534545	11.253222	-197.620378	822.497430	5.615980	9.405439	-45.000000	40.198603	-45.000000	-41.944466	2781.296724	-2985.704823	147.091630	-117.999378	1104.858354	173.232586	10.814223	5.370160	16.453536	39.137887	-40.419557	-44.999977	-41.991860	-1355.859923	-649.489604	26.875629	-7.250560	729.464977	3.609144	11.092931	-19.463946	
2.9600	-39.747170	-10.570505	11.062465	-193.466723	821.240857	5.635154	9.391448	-45.000000	40.409451	-45.000000	-41.066598	2781.644268	-2985.835010	147.121426	-117.963438	1104.799365	174.997105	10.666297	5.278717	16.555510	39.360319	-40.672464	-44.999959	-41.269947	-1356.002163	-649.678321	26.964310	-6.763581	729.392569	4.466573	11.257766	-19.385262	
2.9700	-39.860819	-10.589947	10.867892	-189.148390	819.828789	5.657183	9.347253	-45.000000	40.611584	-45.000000	-40.120062	2782.001729	-2985.998909	147.164775	-117.805686	1104.715685	176.983300	10.514303	5.179407	16.686790	39.588477	-40.944161	-44.999927	-40.557582	-1356.178785	-649.868376	27.045755	-6.204452	729.294571	5.373514	11.416014	-19.306112	
2.9800	-39.970650	-10.592321	10.664687	-184.674911	818.259951	5.683725	9.288247	-45.000000	40.820530	-45.000000	-39.106839	2782.370076	-2986.197403	147.224495	-117.532602	1104.601178	179.156084	10.359459	5.079251	16.836842	39.825492	-41.227534	-44.999870	-39.845331	-1356.376524	-650.076575	27.134032	-5.581225	729.167048	6.396185	11.566795	-19.238523	
2.9900	-40.074658	-10.576408	10.453757	-180.058255	816.535981	5.714305	9.218568	-45.000000	41.036878	-45.000000	-38.034918	2782.745426	-2986.434340	147.298100	-117.151302	1104.454113	181.494007	10.200298	4.970702	17.005866	40.063476	-41.519878	-44.999767	-39.153435	-1356.600951	-650.285625	27.231980	-4.865731	729.012937	7.577980	11.702425	-19.191647	
3.0000	-40.169020	-10.542621	10.229479	-175.313502	814.661470	5.747327	9.149156	-45.000000	41.279358	-45.000000	-36.907341	2783.126120	-2986.710077	147.388037	-116.686998	1104.272165	183.959583	10.036470	4.863240	17.167393	40.304293	-41.810392	-44.999582	-38.468084	-1356.841234	-650.508010	27.348747	-4.073525	728.830616	8.944204	11.829859	-19.171096	
3.0100	-40.252170	-10.500782	10.005952	-170.459277	812.644638	5.780517	9.085999	-45.000000	41.543606	-45.000000	-35.761796	2783.508890	-2987.022185	147.489509	-116.174163	1104.059756	186.510142	9.867354	4.754558	17.319081	40.538628	-42.099430	-44.999252	-37.809820	-1357.092518	-650.733305	27.479583	-3.228425	728.627671	10.484041	11.940280	-19.178543	
3.0200	-40.319177	-10.442797	9.774549	-165.517674	810.498365	5.812915	9.029992	-45.000000	41.844379	-45.000000	-34.596689	2783.886228	-2987.370849	147.601934	-115.622477	1103.808194	189.179680	9.691424	4.659245	17.434009	40.766315	-42.379236	-44.998659	-37.176766	-1357.352964	-650.967792	27.640234	-2.304932	728.404978	12.207707	12.052484	-19.216386	
3.0300	-40.370201	-10.389190	9.564287	-160.513518	808.241343	5.845435	8.987073	-45.000000	42.160788	-45.000000	-33.479952	2784.266463	-2987.741831	147.720301	-115.079379	1103.531114	191.876002	9.511702	4.572451	17.538671	40.982975	-42.653814	-44.997598	-36.587433	-1357.612042	-651.212605	27.808208	-1.420546	728.178180	14.033616	12.139532	-19.276245	
3.0400	-40.406363	-10.325439	9.362472	-155.473107	805.897996	5.881894	8.957734	-45.000000	42.492094	-45.000000	-32.401243	2784.649640	-2988.131342	147.845986	-114.572487	1103.232307	194.540288	9.327802	4.484630	17.639920	41.199873	-42.927256	-44.995698	-36.011030	-1357.873032	-651.477143	27.965477	-0.624661	727.948200	15.880501	12.202561	-19.344224	
3.0500	-40.430752	-10.259167	9.181069	-150.423779	803.497618	5.927023	8.947006	-45.000000	42.817084	-45.000000	-31.402117	2785.041447	-2988.527503	147.971251	-114.137471	1102.927772	197.043890	9.144657	4.383258	17.763275	41.417379	-43.208328	-44.992294	-35.448257	-1358.130090	-651.761727	28.086091	-0.016794	727.721474	17.628708	12.226299	-19.402032	
3.0600	-40.446233	-10.145143	8.967327	-145.393800	801.071191	5.984826	8.945482	-45.000000	43.156733	-45.000000	-30.392634	2785.428222	-2988.939747	148.097190	-113.719991	1102.607063	199.455891	8.957272	4.258312	17.903897	41.643258	-43.497473	-44.986197	-34.869702	-1358.404521	-652.052389	28.182652	0.522327	727.484317	19.262745	12.239394	-19.441863	
3.0700	-40.452118	-10.024106	8.760711	-140.411551	798.648430	6.056700	8.952752	-45.000000	43.491178	-45.000000	-29.448155	2785.821988	-2989.348688	148.223667	-113.324869	1102.282890	201.737253	8.774783	4.130889	18.070069	41.863260	-43.789003	-44.975274	-34.309256	-1358.674105	-652.355395	28.257139	0.931378	727.235518	20.738494	12.235281	-19.458011	
3.0800	-40.450131	-9.872929	8.530135	-135.505253	796.255414	6.141467	8.956858	-45.000000	43.830504	-45.000000	-28.506468	2786.216104	-2989.759215	148.356247	-112.909022	1101.942563	204.026755	8.592198	4.003123	18.247755	42.077814	-44.075843	-44.955713	-33.744163	-1358.948949	-652.657916	28.327395	1.329960	726.958804	22.093641	12.237746	-19.452596	
3.0900	-40.435316	-9.730283	8.314253	-130.702093	793.914519	6.235624	8.954912	-45.000000	44.153484	-45.000000	-27.625058	2786.614338	-2990.159451	148.493182	-112.462218	1101.584193	206.422565	8.416399	3.911829	18.402662	42.268633	-44.342701	-44.920656	-33.195027	-1359.205973	-652.962574	28.408379	1.717747	726.653060	23.356358	12.255809	-19.432547	
3.1000	-40.405756	-9.553741	8.069494	-126.027979	791.644880	6.334645	8.930523	-45.000000	44.454045	-45.000000	-26.713310	2787.009474	-2990.556426	148.636938	-111.939398	1101.176090	209.238016	8.237529	3.858502	18.502480	42.435036	-44.572581	-44.857907	-32.597859	-1359.468441	-653.248226	28.504100	2.222930	726.311647	24.612130	12.305986	-19.410733	
3.1100	-40.353827	-9.385161	7.844225	-121.506056	789.463793	6.434310	8.880788	-45.000000	44.689303	-45.000000	-25.863406	2787.416506	-2990.927126	148.778139	-111.401198	1100.710643	212.652069	8.062126	3.874361	18.523906	42.558714	-44.750340	-44.745372	-31.946840	-1359.712032	-653.512022	28.596074	2.748303	725.944613	25.861822	12.372042	-19.392652	
3.1200	-40.274914	-9.190282	7.603159	-117.156909	787.387732	6.531499	8.787276	-45.000000	44.851909	-45.000000	-25.000897	2787.827220	-2991.273201	148.914926	-110.908334	1100.136850	217.250822	7.895785	3.994588	18.418898	42.630607	-44.875045	-44.553517	-31.149094	-1359.918861	-653.760342	28.672564	3.286763	725.549864	27.148328	12.453161	-19.386260	
3.1300	-40.164248	-9.028480	7.412508	-112.998340	785.432877	6.624163	8.686742	-45.000000	44.944112	-45.000000	-24.237075	2788.237350	-2991.581198	149.032666	-110.641887	1099.450078	223.309938	7.768411	4.242692	18.258623	42.629111	-44.951570	-44.295221	-30.340837	-1360.098445	-653.974684	28.735479	3.783667	725.148508	28.421759	12.528260	-19.386193	
3.1400	-40.024495	-8.898361	7.272779	-109.046179	783.614801	6.710856	8.596058	-45.000000	44.988048	-45.000000	-23.569877	2788.629429	-2991.847127	149.106555	-110.974290	1098.600702	231.855101	7.774832	4.686437	18.058608	42.552307	-44.988533	-43.984526	-29.557454	-1360.258276	-654.159768	28.790047	4.235663	724.747877	29.669239	12.591637	-19.390937	
3.1500	-39.860619	-8.838849	7.225218	-105.314259	781.947871	6.790440	8.535980	-45.000000	45.000000	-45.000000	-23.082955	2789.002759	-2992.056623	149.116807	-112.211559	1097.603574	243.146649	7.986595	5.343599	17.899731	42.415123	-44.999881	-43.647324	-28.923128	-1360.413993	-654.296647	28.839366	4.603901	724.363935	30.817220	12.626445	-19.389670	
3.1600	-39.680093	-8.806882	7.221031	-101.815199	780.444992	6.861670	8.482189	-45.000000	45.000000	-45.000000	-22.687477	2789.345845	-2992.173054	148.984196	-115.781233	1096.222116	261.971688	8.805201	6.546581	17.717747	42.247069	-45.000000	-43.281398	-28.345282	-1360.546979	-654.403997	28.875063	4.926691	724.001072	31.975021	12.632949	-19.401119	
3.1700	-39.492636	-8.827938	7.291418	-98.560613	779.117200	6.923013	8.454276	-45.000000	45.000000	-45.000000	-22.446151	2789.654129	-2992.211836	148.719073	-121.310273	1094.590656	286.200869	10.126814	8.140709	17.588527	42.073048	-45.000000	-42.927574	-27.947494	-1360.692125	-654.461597	28.897738	5.187484	723.679652	33.021830	12.605393	-19.407064	
3.1800	-39.308366	-8.852096	7.383014	-95.561401	777.973018	6.972461	8.422828	-45.000000	45.000000	-45.000000	-22.262466	2789.927500	-2992.193321	148.349239	-128.346288	1092.793636	314.214817	11.852245	10.024412	17.450717	41.917197	-45.000000	-42.589946	-27.619847	-1360.845015	-654.489970	28.895719	5.411342	723.396505	33.956192	12.564201	-19.409077	
3.1900	-39.133715	-8.868920	7.480637	-92.827488	777.017738	7.007536	8.376688	-45.000000	45.000000	-45.000000	-22.108482	2790.177068	-2992.173368	147.992830	-134.952853	1091.184114	339.235444	13.463744	11.738040	17.333663	41.789545	-45.000000	-42.279329	-27.364000	-1361.011630	-654.488616	28.869333	5.573781	723.152967	34.665216	12.521199	-19.390411	
3.2000	-38.974775	-8.840621	7.537533	-90.367993	776.252773	7.025273	8.294340	-45.000000	45.000000	-45.000000	-21.884290	2790.410368	-2992.161767	147.689538	-140.828058	1089.776925	360.828076	14.900551	13.263508	17.181478	41.685777	-45.000000	-41.987062	-27.054008	-1361.158523	-654.492348	28.817989	5.686479	722.941721	35.249144	12.483587	-19.369957	
3.2100	-38.836170	-8.807357	7.599486	-88.190826	775.675139	7.022364	8.208750	-45.000000	45.000000	-45.000000	-21.653698	2790.629845	-2992.200672	147.530918	-144.521114	1088.835489	373.972682	15.765360	14.246284	17.077314	41.589691	-45.000000	-41.747370	-26.803846	-1361.302920	-654.504900	28.755800	5.705739	722.769922	35.607939	12.444873	-19.333189	
3.2200	-38.729007	-8.743535	7.637661	-86.302447	775.277101	6.995171	8.122980	-45.000000	45.000000	-45.000000	-21.373723	2790.835694	-2992.285948	147.504627	-146.363804	1088.280035	380.185568	16.153497	14.765717	17.008930	41.508634	-45.000000	-41.564247	-26.546452	-1361.437355	-654.534489	28.681934	5.656422	722.629425	35.820681	12.402930	-19.294280	
3.2300	-38.655361	-8.644672	7.643474	-84.707698	775.046734	6.939957	8.037311	-45.000000	45.000000	-45.000000	-21.030245	2791.020202	-2992.411377	147.587666	-146.621860	1088.041569	380.742342	16.138518	14.889211	16.962770	41.450220	-45.000000	-41.431773	-26.267212	-1361.551748	-654.575790	28.603828	5.552560	722.513215	35.938122	12.355972	-19.261130	
3.2400	-38.615182	-8.495230	7.600014	-83.409493	774.968822	6.852984	7.946724	-45.000000	45.000000	-45.000000	-20.623587	2791.179582	-2992.521425	147.677779	-146.844056	1087.830620	381.326651	16.142701	14.980805	16.911914	41.426074	-45.000000	-41.336325	-25.923748	-1361.634445	-654.619314	28.527334	5.438702	722.421565	36.091423	12.294995	-19.255721	
3.2500	-38.601943	-8.327940	7.547841	-82.409211	775.026306	6.730902	7.861415	-45.000000	45.000000	-45.000000	-20.223115	2791.294090	-2992.613956	147.750324	-147.020141	1087.650166	381.911348	16.164065	15.036307	16.851772	41.428629	-45.000000	-41.278004	-25.586948	-1361.683122	-654.661276	28.465610	5.315773	722.359813	36.241510	12.224713	-19.272262	
